<svg xmlns="http://www.w3.org/2000/svg" viewBox="0 0 333.552 308.938">
<path fill="#15151a" d="M322.007,0H0v308.938h333.552V0H322.007z M322.007,297.448H11.544V11.489h310.463V297.448z"/>
<path fill="#15151a" d="M295.847,92.141l0.005,8.245c0.005,23.73-7.239,38.901-23.4,46.492c19.454,7.575,27.044,25.049,27.044,49.438l0.006,18.799c0.011,35.598-18.771,54.727-55.034,54.737l-68.859,0.006v-32.532h11.818l-0.054-198.23l54.727-0.016C279.675,39.074,295.835,56.538,295.847,92.141 M223.667,166.012l0.021,70.877l20.772-0.012c12.198-0.005,18.788-5.606,18.783-22.745l-0.006-20.107c-0.005-21.433-6.926-28.023-23.416-28.018L223.667,166.012z M223.64,72.055l0.021,60.987h14.177c13.517-0.005,21.751-5.942,21.745-24.406V95.779c-0.01-16.479-5.611-23.73-18.475-23.73L223.64,72.055z"/>
<path fill="#15151a" d="M46.571,39.096l57.364-0.016c36.263-0.011,54.075,20.097,54.083,57.019l0.033,116.698c0.008,36.923-17.791,57.035-54.05,57.052l-57.368,0.011L46.582,71.752H34.048V39.09L46.571,39.096z M82.844,72.049l0.051,164.839l20.438-0.006c11.538-0.006,18.458-5.942,18.456-22.427l-0.03-119.996c-0.005-16.479-6.929-22.416-18.478-22.416L82.844,72.049z"/>
</svg>
