<svg xmlns="http://www.w3.org/2000/svg" viewBox="0 0 262.857 198.668">
<path fill="#FFFFFF" d="M72.447,176.196c0.005,6.65,2.929,9.174,7.583,9.175c4.656,0,7.582-2.53,7.579-9.179l-0.016-50.269c-0.001-6.647-2.928-9.175-7.582-9.174c-4.655,0-7.578,2.528-7.577,9.178L72.447,176.196z M57.809,126.862c-0.005-14.895,7.839-23.408,22.197-23.412c14.365-0.006,22.214,8.505,22.219,23.402l0.014,48.406c0.003,14.893-7.842,23.405-22.202,23.409c-14.361,0.004-22.209-8.505-22.218-23.399L57.809,126.862z"/>
<path fill="#FFFFFF" d="M131.338,103.437c14.232-0.004,21.548,8.504,21.552,23.397v2.927l-13.828,0.004v-3.855c-0.002-6.648-2.663-9.176-7.316-9.176c-4.654,0.004-7.317,2.528-7.313,9.178c0.003,19.152,28.598,22.732,28.602,49.33c0.007,14.895-7.437,23.408-21.799,23.414c-14.364,0-21.813-8.51-21.819-23.403l-0.001-5.718l13.83-0.002l0.003,6.65c0.004,6.648,2.929,9.041,7.585,9.039c4.654,0,7.579-2.395,7.577-9.042c-0.006-19.153-28.599-22.735-28.605-49.332C109.8,111.952,117.111,103.44,131.338,103.437"/>
<path fill="#FFFFFF" d="M181.076,103.422c14.23-0.003,21.546,8.505,21.549,23.397l0.002,2.928l-13.831,0.005l-0.001-3.856c-0.002-6.649-2.662-9.176-7.313-9.176c-4.657,0.002-7.318,2.529-7.316,9.18c0.006,19.151,28.6,22.73,28.607,49.33c0.004,14.894-7.438,23.405-21.803,23.41c-14.361,0.002-21.813-8.505-21.819-23.398v-5.721l13.832-0.003l0.002,6.649c0.001,6.65,2.928,9.043,7.583,9.04c4.653-0.001,7.578-2.394,7.577-9.042c-0.006-19.153-28.601-22.733-28.605-49.331C159.533,111.938,166.846,103.427,181.076,103.422"/>
<polygon fill="#FFFFFF" points="231.341,94.143 216.713,94.147 216.689,1.055 231.316,1.053 231.327,40.95 247.95,40.944 247.939,1.048 262.831,1.043 262.857,94.133 247.966,94.136 247.954,54.242 231.329,54.247 "/>
<path fill="#FFFFFF" d="M72.688,72.776c0.001,6.647,2.926,9.175,7.58,9.173c4.654,0,7.581-2.529,7.578-9.177L87.83,22.503c0.001-6.649-2.928-9.174-7.583-9.172c-4.654,0-7.578,2.528-7.575,9.175L72.688,72.776z M58.044,23.443C58.041,8.547,65.886,0.035,80.245,0.031c14.362-0.004,22.209,8.505,22.217,23.399l0.013,48.407c0.004,14.893-7.839,23.408-22.205,23.412c-14.359,0.002-22.207-8.506-22.211-23.4L58.044,23.443z"/>
<path fill="#FFFFFF" d="M125.86,1.083l0.019,71.813c0.003,6.647,2.929,9.04,7.584,9.039c4.655-0.002,7.577-2.396,7.579-9.046L141.02,1.078l13.831-0.004l0.019,70.881c0.006,14.894-7.438,23.407-21.802,23.413c-14.362,0.003-21.812-8.507-21.817-23.4l-0.02-70.882L125.86,1.083z"/>
<path fill="#FFFFFF" d="M186.779,42.29l20.48-0.005l0.01,29.521c0.001,14.895-7.445,23.408-21.81,23.411c-14.357,0.003-21.81-8.505-21.813-23.398l-0.011-48.407C163.631,8.518,171.076,0.003,185.436,0c14.364-0.004,21.814,8.507,21.816,23.4l0.004,9.044l-13.831,0.003l-0.003-9.973c0-6.651-2.929-9.176-7.582-9.174c-4.658,0.001-7.579,2.528-7.576,9.177l0.012,50.271c0.003,6.646,2.928,9.042,7.581,9.039c4.656,0.001,7.581-2.394,7.58-9.043l-0.007-17.157l-6.648,0.005L186.779,42.29z"/>
<path fill="#FFFFFF" d="M232.079,188.509c0.008,5.467-4.418,9.904-9.886,9.915c-5.468,0.009-9.907-4.415-9.918-9.884c-0.008-5.467,4.417-9.905,9.884-9.916C227.628,178.614,232.068,183.039,232.079,188.509"/>
<path fill="#FFFFFF" d="M50.235,167.955c0-9.839-3.061-16.886-10.908-19.943c6.519-3.062,9.442-9.18,9.439-18.753l-0.002-3.326c-0.005-14.361-6.524-21.406-21.682-21.402l-22.075,0.006l0.02,79.91l-4.788,0.009l0.099,13.168l27.774-0.002c14.629-0.007,22.168-7.722,22.163-22.082L50.235,167.955z M19.639,117.991l7.07-0.082c5.188,0,7.476,2.842,7.476,9.492v5.185c0,7.448-3.366,10.171-8.82,10.171h-5.719L19.639,117.991z M28.035,184.319l-8.379,0.004l-0.009-28.592l6.517-0.002c6.653-0.002,9.444,2.657,9.447,11.301l0.002,8.111C35.615,182.056,32.957,184.317,28.035,184.319z"/>
<path fill="#FFFFFF" d="M49.934,24.11c-0.003-14.894-7.08-23.005-21.709-23L0.03,1.126L0,14.294l5.006-0.01l0.008,79.917l23.134-0.003c14.628-0.005,21.804-8.12,21.801-23.014L49.934,24.11z M27.874,80.901l-8.244,0.002l-0.021-66.494l8.245-0.002c4.658,0,7.45,2.393,7.452,9.042l0.013,48.406C35.32,78.506,32.527,80.899,27.874,80.901z"/>
</svg>
